<?xml version="1.0" encoding="utf-8"?>
<!-- Generator: Adobe Illustrator 21.0.2, SVG Export Plug-In . SVG Version: 6.00 Build 0)  -->
<svg version="1.1"
	 id="svg2" xmlns:cc="http://creativecommons.org/ns#" xmlns:dc="http://purl.org/dc/elements/1.1/" xmlns:rdf="http://www.w3.org/1999/02/22-rdf-syntax-ns#" xmlns:svg="http://www.w3.org/2000/svg"
	 xmlns="http://www.w3.org/2000/svg" xmlns:xlink="http://www.w3.org/1999/xlink" x="0px" y="0px" viewBox="0 0 441.7 83.4"
	 style="enable-background:new 0 0 441.7 83.4;" xml:space="preserve">
<style type="text/css">
	.st0{fill:#DDDED9;}
	.st1{fill:#FFFFFF;}
	.st2{fill:#0089CF;}
	.st3{fill:#100F0D;}
</style>
<g id="g10" transform="matrix(1.3333333,0,0,-1.3333333,0,83.373333)">
	<g id="g12" transform="scale(0.1)">
		<path id="path14" class="st0" d="M1943.4,0.1h436v625.1h-436L1943.4,0.1"/>
		<path id="path16" class="st1" d="M0,625.3V0.1h2104.7v222.1l90.7,90.7l-90.7,90.7v221.7L0,625.3"/>
		<path id="path18" class="st2" d="M843.1,226.7v-8.8l2.6,2.3c-0.6,2.5-1.1,4.9-1.6,7.4L843.1,226.7z M887.6,325
			c0-1.5,1.1-2.6,2.6-2.6s2.6,1.1,2.6,2.6c0,1.4-1.1,2.9-2.6,2.9C888.7,327.9,887.6,326.5,887.6,325 M1052.1,244
			c-4,11-14.7,18.4-29.4,17.3c-8.1,15.5-21,8.1-24.7,3.7c4-3.7,7.3-5.1,12.1-5.9v-3.3c-9.2,0.4-12.1,4-18.4,10.7
			c-2.6-22.1,23.2-29.9,31.3-11.8c12.1,0.4,19.5-5.1,22.1-12.9c2.5-7.7,0-16.2-4.1-20.2c-7.4-8.8-19.2-8.8-29.8-3.3
			c-6.6,3.3-13.6,10.3-19.9,16.9c-9.2,10.3-14.4,14.7-21.4,18.4c-3.8,1.8-7.7,2.7-11.4,3.3c-2.2,0.4-4.4,0.7-6.6,0.7
			c-2.1,0-4.1-0.2-5.9-0.6c-15.7-1.7-31.7-9.5-50.8-11.2H885c-6.4-5.6-12-10.6-17-14.9l-12-10.4c0-0.1,0.1-0.2,0.1-0.3
			c-5.2-4.7-8.2-7.5-8.2-7.5c1.4-11.4,1.8-16.9,1.8-27.2c0-8.5-0.4-12.6-0.4-16.2c-0.4-3.7-1.1-6.6-2.2-9.5c-0.7-2.6-3-4.8-6.6-5.2
			c-3.3-0.7-11.1,5.2-13.6,1.5c-2.2-2.9,0.4-9.9,2.5-11.8h21.7c2.6,5.5,3.7,8.8,5.2,12.1c1.9,2.6,3.3,6.7,4.8,9.2
			c1.5,2.6,2.9,6.3,3.7,8.8c0.4,2.6,1.5,5.2,1.8,7c1.5,4.1,3.7,7.8,5.2,9.9c0.4,0.7,0.8,1.2,1.2,1.8c1-1.4,1.9-2.8,2.5-4
			c5.2-8.1,9.6-14.4,16.9-17.3c2.9-1.5,4.8-2.6,5.9-3.7c1.1-1,1.1-4.4,0.8-6.6c0-3-1.1-5.5-4.1-6.6c-4.8-1.8-12.5,5.1-15.5,1.4
			c-2.6-2.9,0.4-8.4,3-12.1h19.9c4.8,7.7,6.6,18.4,6.6,27.2c0,9.2,0,11.4-5.5,13.6c-1.9,1.1-3.7,5.5-5.2,10.3c0,0.5,0,1.5,0,2.5
			c9.5,3.1,19.9,8.7,31.4,17.1c0.1-1.5,0.1-3,0.2-4.5c1.8-12.5,3.3-23.9,12.9-33.1c2.5-2.6,4.7-5.1,5.1-6.6c0-1.1-1.5-5.1-2.6-7
			c-2.2-4.8-7-8.8-10.6-9.2c-4.8-0.7-10.3,5.5-14,1.8c-3.3-3.3,1.1-10.3,3.3-12.1h20.2c6.6,12.1,15.8,22.4,19.2,29.1
			c1.8,4.8,1.8,6.6-1.9,8.1c-6.6,3.7-5.9,11.8-4,21c0.5,1.5,1.3,3,2.1,4.5c5-13.9,11.5-27,26.7-31c2.6-0.3,6.2-2.2,6.6-3
			c0-0.7,0-3.7-0.4-5.8c-0.7-4.5-3.3-9.6-6.6-12.2c-3.6-2.9-12.8,6.6-15.8,1.1c-2.2-4.4,1.5-10.3,3.3-11.8h19.5
			c5.5,12.1,10.3,22.9,11.8,30.5c1.5,9.2,1.5,12.5-5.5,14c-3.7,0.4-6.6,1.9-7.7,7c-2.6,9.2-2.2,24.7-9.2,35.3
			c7.7-9.2,16.1-15.8,23.5-19.5c17-9.2,34.6-5.9,43.1,6.3C1054.3,227.1,1054.3,237.4,1052.1,244 M963.8,346.4
			c27.6,21.7,115.6,81.7,179.6,104.5C1067.6,432.1,1007.6,387.9,963.8,346.4 M838.7,367.7c11.8,37.9,31,106.4,64.5,155.7
			C879.9,498,845.7,442.8,838.7,367.7 M870.7,357.4c2.2,8.1,6.6,23.5,15.9,42c-10-13.2-15.1-23.2-20.2-35.7
			C868.9,362.1,870.3,360.3,870.7,357.4 M1221.1,477.3c5.2-0.4,9.6,0,8.4-6.6c-0.3-4.8-1.8-7.3-9.6-9.2
			c-23.5-4.1-34.2-9.2-69.5-24.3c17.3,5.2,31.7,8.1,40.5,8.1c4.4,0,5.5-0.4,5.5-4c0-4.8-2.6-7.7-7-9.2
			c-20.6-6.6-49.3-19.9-75.5-31.3c26.9,8.1,40.2,7.7,45.7,8.1c3.7,0.7,8.8,0.7,7-5.5c-0.8-5.5-2.6-8.1-13.3-11.1
			c-39.4-9.9-63.7-20.2-107.1-41.9c46,13.3,76.2,15.1,96.4,16.2c9.9,0,14.3,0,13.3-5.5c-0.4-5.2-1.5-7.8-10.3-10.3
			c-28-8.1-63.3-14.7-92.4-27.2c12.9,2.2,25.8,4.4,33.1,3.3c6.2-0.7,8.8-2.2,7.7-7.3c-1.1-5.6-5.1-9.2-11.8-9.6
			c-25-2.2-32.7-4.8-62.9-14c5.9-0.4,5.9-4.1,3.3-7.4c-2.6-3.7-7.4-6.6-11.8-6.6c-9.2,0.4-27.6-1.1-41.6-10.3
			c-7.7-5.9-12.5,7.7-7.7,13.2c11.1,12.2,43.8,30.2,61.5,42.3c-32.7-15.8-63.6-30.1-93.1-56.7c-10-9.2-14.8-5.1-15.9-1.1
			c-0.7,4.8-1.5,8.1-5.9,5.1c-3.7-1.8-6.3-4.4-12.5-9.6l-0.1,0.1l-10.6-9.5v0.1l-42-37.7v9.1l33.3,29.9v8.7L857.4,249v9.4L885,283
			v24l23.2,1.8l-18.4,6.3c9.9,7.7,19.1,1.8,22.4-1.1c0.3,1.5,1.1,8.1-5.1,11.8c-2.9,1.5-6.2,2.6-11.8,2.2
			c-8.4,6.7-17.1,3.3-21.4-0.6c-6.9,9.1-15.7,10.2-15.7,10.2l7-15.4l-11.8,3.6l8.9-12.2c-5.1-8-11.2-17.9-15.9-36.3
			c-2.2-7-4.4-21.3-3.7-33.8c0-1,0.1-1.8,0.1-2.7c-11.2,25.2-23.3,65.3-23.3,111.6c0,29.8,4.7,73.3,26.9,119.2
			c22.8,49,50.8,76.2,71.8,95c10.3,8.8,15.4,11.8,21,12.9c3.7,0.4,7.3-1.1,8.8-5.5c2.6-10,2.2-11.4-0.4-15.5
			c-6.2-10.3-23.5-30.2-33.5-56.3c19.1,22.1,18.4,19.5,29.8,30.5c2.6,3.3,7.7,5.9,10.3,0c3-6.6,2.6-8.1-1.1-14
			c-2.9-5.2-18.1-19.1-34.2-49.3c7.7,9.2,12.2,14.4,14.3,15.5c2.6,2.6,5.9,6.6,9.6,1.1c4.7-6.6,2.2-7.4,0.4-11.8
			c-1.5-4-16.6-28.7-27.6-49.7c7.8,9.2,8.9,11.4,12.9,13.2c2.2,1.1,3.7-0.4,4.8-2.9c1.5-3.4,1.5-7.7,0.4-10.3
			c-10.3-21-16.2-23.9-27.2-60.7c8.8,11,10,12.1,14,16.9c2.6,1.9,6.6,5.6,9.6,0.4c2.2-2.5,3.3-7,1.1-12.9
			c-5.2-12.5-6.3-13.6-15.9-35.3c3.3,0.9,4.5,0.2,6.4-3.2c8.5,10,16.7,19.1,23.8,26.3c27.3,27.6,52.3,49.7,89.8,75.4
			c42.7,28.7,78.7,45.7,103.8,56c12.5,4.5,22.8,8.1,27.7,8.5c4.8,0.7,8.8,0,8.8-4.4c0-4.1-1.1-6.6-2.9-7.7
			c-6.6-4.1-11.8-5.5-30.2-14.7C1171.7,475.5,1206,479.2,1221.1,477.3 M1846.5,145.4v71.4h19.7l17.2-50.2l17.7,50.2h17.3v-71.4
			h-13.7v53.9l-17.5-49.1h-11.9l-17.1,49.8v-54.6H1846.5z M1768.8,145.4l27.8,71.4h14.9l27.8-71.4H1824l-7.4,19.1H1787l-7.4-19.1
			H1768.8z M1790.7,174h22.2l-11.1,28.5L1790.7,174z M1702.1,145.4v71.4h30.7c8.2,0,14.6-1.3,19.2-4c4.6-2.6,8.2-6.5,11-11.6
			c2.7-5.1,4.1-11.3,4.1-18.6c0-7.1-1.3-13.5-3.9-19.1s-6.3-10-11.3-13.3c-5-3.2-11.7-4.9-20.4-4.9h-29.4V145.4z M1716.9,155.5h11.1
			c5.8,0,10.2,0.9,13.3,2.7c3.1,1.8,5.5,4.9,7.3,9.1c1.8,4.3,2.7,9.1,2.7,14.4c0,5-0.9,9.5-2.6,13.4s-4.1,6.8-7.2,8.8s-8.3,3-15.5,3
			h-9L1716.9,155.5z M1636.4,145.4v71.4h26.7c5.5,0,9.7-0.7,12.5-2.1c2.9-1.4,5.1-3.4,6.8-6.2c1.7-2.8,2.5-5.9,2.5-9.4
			c0-4.2-1.2-8.1-3.6-11.8s-5.8-6.6-10.3-8.5l23.4-33.3h-18.1l-17.8,29.2h-8.2v-29.2L1636.4,145.4L1636.4,145.4z M1650.4,184.4h3.4
			c6.1,0,10.4,1.4,12.7,4c2.3,2.7,3.5,5.7,3.5,9.1c0,2.9-0.9,5.2-2.8,7c-1.9,1.7-5.8,2.6-11.6,2.6h-5.2V184.4z M1577.1,145.4v71.4
			h45.8V207H1592v-19.9h25.5v-9.8H1592v-21.7h33.2v-10.1L1577.1,145.4z M1530.8,145.4V207h-25.6v9.9h66V207h-25.6v-61.6H1530.8z
			 M1457.6,158.3c5.6-2.4,9.7-3.8,12.5-4.2c2.8-0.5,5.3-0.7,7.6-0.7c4.2,0,7.3,0.9,9.3,2.8c2.1,1.9,3.1,4.1,3.1,6.7
			c0,2-0.6,3.8-1.7,5.4c-1.2,1.6-4,3.6-8.4,6.2l-4.8,2.6c-6.9,3.8-11.5,7.4-14,10.6c-2.5,3.2-3.7,7-3.7,11.3c0,5.4,2.1,10,6.2,13.8
			s10,5.7,17.7,5.7c5.7,0,12.2-0.8,19.5-2.5v-11.4c-7.4,2.7-13.3,4.1-17.6,4.1c-3.6,0-6.3-0.8-8.2-2.4c-1.9-1.5-2.8-3.4-2.8-5.6
			c0-1.7,0.6-3.2,1.7-4.7s3.9-3.4,8.4-6l5.2-2.8c7.9-4.4,12.9-8.2,15.1-11.5c2.1-3.3,3.2-6.9,3.2-11c0-5.8-2.2-10.8-6.7-15
			c-4.5-4.2-11.6-6.2-21.3-6.2c-5.8,0-12.5,0.8-20.1,2.4v12.4H1457.6z M1371.1,145.4v71.4h19.7l17.2-50.2l17.7,50.2h17.3v-71.4
			h-13.7v53.9l-17.4-49.1h-12l-17.1,49.8v-54.6H1371.1z M1291.3,145.4l27.8,71.4h14.9l27.8-71.4h-15.3l-7.4,19.1h-29.6l-7.4-19.1
			H1291.3z M1313.3,174h22.2l-11.1,28.5L1313.3,174z M1884,347.2h14.8v-71.4H1884V347.2z M1824,275.8v71.4h45.7v-9.9h-30.9v-19.9
			h25.5v-9.8h-25.5V286h33.1v-10.1L1824,275.8z M1778,275.8v61.5h-25.6v9.9h66v-9.9h-25.6v-61.5H1778z M1732.3,347.2h14.8v-71.4
			h-14.8V347.2z M1671.9,288.7c5.6-2.3,9.7-3.7,12.5-4.2s5.3-0.7,7.6-0.7c4.2,0,7.3,0.9,9.3,2.8c2.1,1.9,3.1,4.1,3.1,6.7
			c0,2-0.6,3.8-1.7,5.4c-1.2,1.6-4,3.6-8.4,6.1l-4.8,2.7c-6.9,3.8-11.5,7.4-13.9,10.6c-2.5,3.3-3.7,7-3.7,11.3
			c0,5.4,2.1,10,6.2,13.8s10,5.7,17.7,5.7c5.7,0,12.2-0.8,19.4-2.5V335c-7.4,2.8-13.2,4.1-17.6,4.1c-3.6,0-6.3-0.8-8.2-2.3
			c-1.9-1.6-2.8-3.4-2.8-5.6c0-1.7,0.6-3.2,1.7-4.7s3.9-3.4,8.4-5.9l5.2-2.9c7.9-4.4,12.9-8.2,15.1-11.5c2.1-3.3,3.2-7,3.2-11
			c0-5.8-2.3-10.9-6.7-15c-4.5-4.2-11.6-6.2-21.3-6.2c-5.8,0-12.5,0.8-20.1,2.4v12.3H1671.9z M1609.4,275.8v71.4h26.7
			c5.5,0,9.7-0.7,12.5-2.1c2.9-1.4,5.1-3.4,6.8-6.2c1.7-2.8,2.5-5.9,2.5-9.4c0-4.2-1.2-8.1-3.6-11.8c-2.4-3.7-5.8-6.6-10.2-8.5
			l23.4-33.3h-18.1l-17.7,29.2h-8.2v-29.2L1609.4,275.8z M1623.4,314.8h3.4c6.1,0,10.4,1.3,12.7,4c2.3,2.7,3.5,5.7,3.5,9.1
			c0,2.9-1,5.2-2.9,7c-1.9,1.7-5.8,2.6-11.6,2.6h-5.2L1623.4,314.8z M1549.1,275.8v71.4h45.7v-9.9h-30.9v-19.9h25.5v-9.8h-25.5V286
			h33.1v-10.1L1549.1,275.8z M1500.7,275.8l-26.4,71.4h15.9l20.5-55.2l19.9,55.2h10.6l-25.6-71.4H1500.7z M1449.8,347.2h14.9v-71.4
			h-14.9V347.2z M1372.3,275.8v71.4h13.1l33-48.8v48.8h11.9v-71.4H1417l-32.8,48.8v-48.8H1372.3z M1298.6,347.2h14.9v-43.8
			c0-7.9,1.3-13.1,4-15.7s6.2-3.8,10.4-3.8c4.2,0,7.6,1.2,10,3.8c2.5,2.5,3.8,7.4,3.8,14.7v44.9h12.9v-43.9c0-8.3-1-14.2-3.1-17.8
			c-2.1-3.6-5.1-6.4-9-8.5c-3.9-2-8.9-3.1-14.9-3.1c-5.9,0-11,1-15.3,2.9c-4.2,1.9-7.6,4.8-10.1,8.5c-2.5,3.8-3.7,9.8-3.7,18.1
			L1298.6,347.2z M1509.7,406.2v71.4h45.7v-9.8h-30.9v-19.9h25.5v-9.8h-25.5v-21.7h33.2v-10.1h-48V406.2z M1455.8,404.3
			c3.9-1.5,7.9-2.3,12-2.3c1.7,0,3.3,0.3,4.6,1c1.3,0.6,2.4,1.7,3.2,3.1c0.8,1.5,1.2,4.5,1.2,9v62.5h14.9v-60.9
			c0-6.7-0.8-11.6-2.3-14.6c-1.5-3.1-4-5.5-7.3-7.4s-7.7-2.8-13.2-2.8c-4.1,0-8.4,0.6-12.8,1.7L1455.8,404.3z M1435.4,477.6h14.9
			v-71.4h-14.9V477.6z M1367.8,406.2v71.4h26.7c5.4,0,9.7-0.7,12.5-2.1c2.9-1.4,5.1-3.4,6.8-6.2c1.7-2.8,2.5-5.9,2.5-9.4
			c0-4.2-1.2-8.1-3.6-11.8c-2.4-3.7-5.8-6.6-10.2-8.5l23.4-33.3h-18.1l-17.8,29.2h-8.2v-29.2L1367.8,406.2z M1381.8,445.2h3.4
			c6.2,0,10.4,1.3,12.7,4c2.3,2.7,3.5,5.7,3.5,9.1c0,2.9-0.9,5.2-2.9,7c-1.9,1.7-5.8,2.6-11.6,2.6h-5.2L1381.8,445.2L1381.8,445.2z
			 M1317.8,406.2l-26.4,71.4h15.8l20.5-55.2l19.9,55.2h10.6l-25.6-71.4H1317.8z M1945.3,275.8v61.5h25.6v9.9h-66v-9.9h25.6v-61.5
			H1945.3"/>
		<path id="path20" class="st1" d="M2130.1,625.3V414.1l83.3-83.3l17.9-17.9l-101.2-101.2V0h1182.7v625.3H2130.1"/>
		<path id="path22" class="st3" d="M486.1,274.5c0-38.6,5.8-66.7,17.3-84.4c11.6-17.6,27.3-31,47.1-39.9
			c19.9-8.9,43.6-13.4,71.2-13.4c28.1,0,51.3,4.8,69.6,14.4s32.4,22.8,42,39.6c9.7,16.7,14.5,44.4,14.5,83v204.8h-60.4V269.2
			c0-34-5.8-56.9-17.5-68.8c-11.7-11.9-27.3-17.8-47-17.8c-20,0-36.3,6-48.8,18c-12.6,12-18.8,36.5-18.8,73.5v204.5h-69.4V274.5"/>
		<path id="path24" class="st3" d="M256.8,145.2L133.4,478.7h74.1l95.7-258.1L396,478.7h49.8L326.2,145.2H256.8"/>
		<path id="path26" class="st2" d="M2354.4,480v36.5h-33.1V480h-16.7v80h16.7v-32.5h33.1V560h16.6v-80H2354.4"/>
		<path id="path28" class="st2" d="M2437.4,541.2c-5.9,7.3-13.4,7.7-22.1,7.7h-10.1v-57.7h12.5c6.8,0,13.8,1,18.7,6.2
			c5.3,5.6,7.3,15.6,7.3,23.1C2443.7,527.9,2442.1,535.5,2437.4,541.2L2437.4,541.2z M2450.5,490.6c-7.9-8.5-17.6-10.7-28.9-10.7
			h-33v80h34.4c11.1,0,20.5-1.7,28.4-10.1c7.3-7.7,9.9-18,9.9-28.3C2461.4,510.3,2458.3,499,2450.5,490.6"/>
		<path id="path30" class="st2" d="M2510.7,477.9c-26.4,0-41.6,15.7-41.6,42c0,12,3.5,23.9,12.4,32.3c8.3,7.9,19.2,9.7,30.2,9.7
			c8.8,0,17.4-1,25.9-3v-13.1c-7.9,2.6-15.9,5.2-24.4,5.2c-6.6,0-13.3-1.6-18.1-6.4c-6.1-6.1-8.4-16.1-8.4-24.5
			c0-17.6,9-30.7,27.7-30.7c8.8,0,16.1,2,23.9,6v-12.2C2529.7,479.2,2520.1,477.9,2510.7,477.9"/>
		<path id="path32" class="st2" d="M2610.1,480v26.8h-26.9V480h-8v56.7h8v-24h26.9v24h8.1V480H2610.1"/>
		<path id="path34" class="st2" d="M2631.4,480v41.6h7.6V480H2631.4z M2631.4,529.1v7.6h7.6v-7.6H2631.4"/>
		<path id="path36" class="st2" d="M2663.4,479c-4.3,0-8.5,1-12.6,2.4v7c3.9-2.1,8.3-3.6,12.8-3.6c3.6,0,7.6,2,7.6,6.1
			c0,8.8-20.1,6.1-20.1,20c0,8.3,6.9,11.6,14.3,11.6c3.4,0,6.8-0.7,10.2-1.3v-6.3c-3.2,1-6.6,1.9-10,1.9c-3.3,0-7.3-1.4-7.3-5.3
			c0-8,20.4-6,20.4-20C2678.7,483.1,2670.9,479,2663.4,479"/>
		<path id="path38" class="st2" d="M2698.5,515.8v-23c0-5,1.6-8.2,7.1-8.2c1.3,0,2.5,0.2,3.6,0.5V480c-1.9-0.5-4-0.9-6-0.9
			c-7.7,0-12.2,4.8-12.2,12.4v24.4h-5.2v5.7h5.2v7.6l7.6,0.7v-8.2h10.9V516h-11"/>
		<path id="path40" class="st2" d="M2734.8,516.8c-9.2,0-11.8-8.3-11.8-16.1c0-7.6,2.7-16,11.8-16c9.2,0,11.8,8.2,11.8,16
			C2746.6,508.4,2743.9,516.8,2734.8,516.8z M2734.8,479c-13,0-19.8,9.3-19.8,21.7c0,12.3,6.7,21.8,19.8,21.8s19.9-9.3,19.9-21.8
			C2754.7,488.3,2747.8,479,2734.8,479"/>
		<path id="path42" class="st2" d="M2784.2,515.8c-5.6,0-9.4-3.9-11.9-8.5V480h-7.6v41.6h7.6v-7.8c2.6,5,7.1,8.8,13,8.8
			c0.8,0,1.6,0,2.4-0.2v-7.1C2786.6,515.7,2785.4,515.8,2784.2,515.8"/>
		<path id="path44" class="st2" d="M2795.1,480v41.6h7.6V480H2795.1z M2795.1,529.1v7.6h7.6v-7.6H2795.1"/>
		<path id="path46" class="st2" d="M2827.1,479c-4.3,0-8.5,1-12.6,2.4v7c3.9-2.1,8.3-3.6,12.8-3.6c3.6,0,7.6,2,7.6,6.1
			c0,8.8-20.1,6.1-20.1,20c0,8.3,6.9,11.6,14.3,11.6c3.4,0,6.8-0.7,10.2-1.3v-6.3c-3.2,1-6.6,1.9-9.9,1.9c-3.3,0-7.3-1.4-7.3-5.3
			c0-8,20.4-6,20.4-20C2842.4,483.1,2834.6,479,2827.1,479"/>
		<path id="path48" class="st2" d="M2870.6,479c-12.2,0-19.6,10.5-19.6,21.9c0,13.1,7.3,21.5,20.7,21.5c3.6,0,7.4-0.6,10.9-1.4v-6.3
			c-3.4,0.9-6.8,1.9-10.4,1.9c-9,0-12.8-8-12.8-16c0-7.9,4.2-15.6,13-15.6c3.6,0,7.3,1,10.6,2.6v-6.5
			C2879.1,479.9,2874.8,479,2870.6,479"/>
		<path id="path50" class="st2" d="M2919.2,480v29c0,3.8-1.6,7-5.9,7c-5.9,0-9.9-4.5-13-9v-27h-7.6v60.4h7.6v-26.7
			c3.3,4.8,8.4,8.8,14.5,8.8c7.7,0,11.9-5.3,11.9-12.7V480H2919.2"/>
		<path id="path52" class="st2" d="M2334.9,395.7c-4.7,4.6-10.9,4.9-17.2,4.9h-7.8V356h10.4c5.4,0,10.4,0.6,14.4,4.5
			c4.4,4.3,6.1,12.3,6.1,18.4C2340.8,384.9,2339.3,391.3,2334.9,395.7L2334.9,395.7z M2340.8,356.7c-5.6-5.5-12.3-6.7-19.9-6.7h-19
			v56.7h18.8c8.1,0,15.2-0.8,21.2-6.8c5.4-5.3,7.4-12.8,7.4-20.2C2349.4,371.2,2346.9,362.6,2340.8,356.7"/>
		<path id="path54" class="st2" d="M2375.7,386.8c-9.2,0-11.8-8.3-11.8-16.1c0-7.7,2.7-16,11.8-16c9.2,0,11.8,8.3,11.8,16
			S2384.9,386.8,2375.7,386.8z M2375.7,349c-13,0-19.8,9.4-19.8,21.7c0,12.3,6.7,21.8,19.8,21.8s19.9-9.3,19.9-21.8
			C2395.6,358.3,2388.7,349,2375.7,349"/>
		<path id="path56" class="st2" d="M2421.9,349c-12.2,0-19.6,10.5-19.6,21.9c0,13.1,7.3,21.5,20.7,21.5c3.7,0,7.4-0.6,11-1.4v-6.3
			c-3.4,0.9-6.8,1.9-10.4,1.9c-9,0-12.8-8-12.8-16c0-7.9,4.2-15.6,13-15.6c3.6,0,7.3,1,10.6,2.6v-6.5
			C2430.4,349.9,2426.2,349,2421.9,349"/>
		<path id="path58" class="st2" d="M2470.1,350v7.8c-3.3-4.9-8.4-8.8-14.5-8.8c-7.6,0-11.9,5.4-11.9,12.7v29.8h7.6v-28.8
			c0-3.7,1.6-7.2,5.9-7.2c5.8,0,10,4.7,13,9.1v26.9h7.6V350H2470.1"/>
		<path id="path60" class="st2" d="M2542,350v29c0,3.8-1.4,7.1-5.7,7.1c-5.4,0-9.3-4.4-12.2-8.3V350h-7.6v29c0,3.9-1.4,7.1-5.8,7.1
			c-5.4,0-9.1-4.4-12.2-8.3V350h-7.6v41.6h7.6v-7.8c3.1,4.9,8.1,8.8,14.1,8.8c2.7,0,5.1-0.8,7.2-2.4c2.5-1.8,3.2-3.6,4.2-6.4
			c2.9,4.9,8.1,8.8,13.9,8.8c2.8,0,5.5-0.8,7.7-2.5c3.2-2.5,3.8-5.8,3.8-9.7V350H2542"/>
		<path id="path62" class="st2" d="M2584.6,381.6c-1.3,3.3-4.2,5.2-7.7,5.2c-6.9,0-9.2-5.6-9.7-11.6h18.4
			C2585.5,377.3,2585.4,379.5,2584.6,381.6L2584.6,381.6z M2566.9,369.6c0.9-9,4.9-14.9,14.5-14.9c4,0,7.8,1.1,11.6,2.6v-5.9
			c-4.2-1.2-8.6-2.3-13-2.3c-12.8,0-20.7,9.5-20.7,21.8c0,10.9,6.1,21.6,18.1,21.6c12.1,0,15.8-10.3,15.8-20.6v-2.2L2566.9,369.6"/>
		<path id="path64" class="st2" d="M2631,350v29c0,3.8-1.6,7-5.9,7c-5.9,0-9.9-4.5-13-9v-27h-7.6v41.6h7.6v-7.8
			c3.3,4.8,8.4,8.8,14.5,8.8c7.7,0,11.9-5.3,11.9-12.7V350H2631"/>
		<path id="path66" class="st2" d="M2659.3,385.8v-23c0-5,1.6-8.2,7.1-8.2c1.3,0,2.5,0.2,3.6,0.5V350c-1.9-0.5-4-0.9-6-0.9
			c-7.7,0-12.2,4.8-12.2,12.4v24.4h-5.2v5.7h5.2v7.6l7.6,0.7v-8.2h10.9V386h-11"/>
		<path id="path68" class="st2" d="M2699.4,370.1c-0.8,0-1.8,0.1-2.6,0.1c-5.3,0-13.8-2-13.8-8.6c0-3.7,3-6.5,6.6-6.5s7,2,9.8,4.2
			V370.1z M2707.2,349c-3.8,0-5.9,2.7-6.7,6.2c-3.7-3.4-7.8-6.2-13.1-6.2c-6.6,0-11.9,4.6-11.9,11.4c0,4.3,1.8,7.6,5.2,10
			c5.4,4,12.3,4.1,18.7,4.1v5c0,5.1-2.4,7.2-7.4,7.2c-4.5,0-8.9-1.6-12.9-3.7v6.2c4.3,2,9.4,3.1,14.1,3.1c4,0,8.4-0.9,11.2-4
			c2.4-2.6,2.6-5.6,2.6-8.9v-18.9c0-3.8,0.6-7.2,5.4-6.3l0.5-4.2C2711.1,349.4,2709.2,349,2707.2,349"/>
		<path id="path70" class="st2" d="M2728.5,385.8v-23c0-5,1.6-8.2,7.1-8.2c1.3,0,2.5,0.2,3.6,0.5V350c-1.9-0.5-4-0.9-6-0.9
			c-7.7,0-12.2,4.8-12.2,12.4v24.4h-5.2v5.7h5.2v7.6l7.6,0.7v-8.2h10.9V386h-11"/>
		<path id="path72" class="st2" d="M2748.3,350v41.6h7.6V350H2748.3z M2748.3,399.1v7.6h7.6v-7.6H2748.3"/>
		<path id="path74" class="st2" d="M2791.4,381.6c-1.3,3.3-4.2,5.2-7.7,5.2c-6.9,0-9.2-5.6-9.7-11.6h18.4
			C2792.2,377.3,2792.1,379.5,2791.4,381.6L2791.4,381.6z M2773.6,369.6c0.9-9,4.9-14.9,14.6-14.9c4,0,7.8,1.1,11.6,2.6v-5.9
			c-4.2-1.2-8.6-2.3-13-2.3c-12.8,0-20.7,9.5-20.7,21.8c0,10.9,6.1,21.6,18.1,21.6c12.1,0,15.8-10.3,15.8-20.6v-2.2L2773.6,369.6"/>
		<path id="path76" class="st2" d="M2827.5,349c-12.2,0-19.6,10.5-19.6,21.9c0,13.1,7.3,21.5,20.7,21.5c3.6,0,7.4-0.6,11-1.4v-6.3
			c-3.4,0.9-6.8,1.9-10.4,1.9c-9,0-12.8-8-12.8-16c0-7.9,4.2-15.6,13-15.6c3.7,0,7.3,1,10.6,2.6v-6.5
			C2836,349.9,2831.7,349,2827.5,349"/>
		<path id="path78" class="st2" d="M2871.8,381.6c-1.3,3.3-4.2,5.2-7.7,5.2c-6.9,0-9.2-5.6-9.7-11.6h18.4
			C2872.6,377.3,2872.5,379.5,2871.8,381.6L2871.8,381.6z M2854,369.6c0.9-9,4.9-14.9,14.6-14.9c4,0,7.8,1.1,11.6,2.6v-5.9
			c-4.2-1.2-8.6-2.3-13-2.3c-12.8,0-20.7,9.5-20.7,21.8c0,10.9,6.1,21.6,18.1,21.6c12.1,0,15.8-10.3,15.8-20.6v-2.2L2854,369.6"/>
		<path id="path80" class="st2" d="M2918.1,350v29c0,3.8-1.6,7-5.9,7c-5.9,0-9.9-4.5-13-9v-27h-7.6v41.6h7.6v-7.8
			c3.3,4.8,8.4,8.8,14.5,8.8c7.7,0,11.9-5.3,11.9-12.7V350H2918.1"/>
		<path id="path82" class="st2" d="M2946.4,385.8v-23c0-5,1.6-8.2,7.1-8.2c1.3,0,2.5,0.2,3.6,0.5V350c-1.9-0.5-4-0.9-6-0.9
			c-7.7,0-12.2,4.8-12.2,12.4v24.4h-5.2v5.7h5.2v7.6l7.6,0.7v-8.2h10.9V386h-11"/>
		<path id="path84" class="st2" d="M2985.7,385.8c-5.6,0-9.4-3.9-11.9-8.5V350h-7.6v41.6h7.6v-7.8c2.6,5,7.1,8.8,13,8.8
			c0.8,0,1.6,0,2.4-0.2v-7.1C2988.1,385.7,2986.9,385.8,2985.7,385.8"/>
		<path id="path86" class="st2" d="M3022.5,350v7.8c-3.3-4.9-8.4-8.8-14.5-8.8c-7.6,0-11.9,5.4-11.9,12.7v29.8h7.6v-28.8
			c0-3.7,1.6-7.2,5.9-7.2c5.8,0,10,4.7,13,9.1v26.9h7.6V350H3022.5"/>
		<path id="path88" class="st2" d="M3094.5,350v29c0,3.8-1.4,7.1-5.7,7.1c-5.4,0-9.3-4.4-12.2-8.3V350h-7.6v29
			c0,3.9-1.4,7.1-5.8,7.1c-5.4,0-9.1-4.4-12.1-8.3V350h-7.6v41.6h7.6v-7.8c3.1,4.9,8.1,8.8,14.1,8.8c2.7,0,5.1-0.8,7.2-2.4
			c2.5-1.8,3.2-3.6,4.2-6.4c2.9,4.9,8.1,8.8,13.9,8.8c2.8,0,5.5-0.8,7.7-2.5c3.2-2.5,3.8-5.8,3.8-9.7V350H3094.5"/>
		<path id="path90" class="st2" d="M2318.2,219.9h-7.5l-15.5,41.6h7.6l12.1-32.3l12.8,32.3h7.1L2318.2,219.9"/>
		<path id="path92" class="st2" d="M2357.5,256.7c-9.2,0-11.8-8.3-11.8-16.1c0-7.7,2.7-16,11.8-16c9.2,0,11.8,8.3,11.8,16
			C2369.3,248.4,2366.7,256.7,2357.5,256.7z M2357.5,219c-13,0-19.8,9.4-19.8,21.7s6.7,21.8,19.8,21.8s19.9-9.4,19.9-21.8
			C2377.4,228.3,2370.5,219,2357.5,219"/>
		<path id="path94" class="st2" d="M2404,256.7c-9.2,0-11.8-8.3-11.8-16.1c0-7.7,2.7-16,11.8-16c9.2,0,11.8,8.3,11.8,16
			C2415.8,248.4,2413.2,256.7,2404,256.7z M2404,219c-13,0-19.8,9.4-19.8,21.7s6.7,21.8,19.8,21.8s19.9-9.4,19.9-21.8
			C2423.9,228.3,2417,219,2404,219"/>
		<path id="path96" class="st2" d="M2453.5,255.8c-5.6,0-9.4-3.9-11.9-8.5v-27.4h-7.6v41.6h7.6v-7.8c2.6,5,7.1,8.8,13,8.8
			c0.8,0,1.6,0,2.4-0.2v-7C2455.9,255.6,2454.7,255.8,2453.5,255.8"/>
		<path id="path98" class="st2" d="M2513.9,219.9v29c0,3.8-1.6,7-5.9,7c-5.9,0-9.9-4.5-13-9V220h-7.6v60.4h7.6v-26.7
			c3.3,4.8,8.4,8.8,14.5,8.8c7.7,0,11.9-5.3,11.9-12.7V220h-7.5"/>
		<path id="path100" class="st2" d="M2556.5,251.6c-1.3,3.3-4.2,5.2-7.7,5.2c-6.9,0-9.2-5.6-9.7-11.6h18.4
			C2557.3,247.3,2557.3,249.5,2556.5,251.6L2556.5,251.6z M2538.7,239.6c0.9-9,4.9-14.9,14.5-14.9c4,0,7.8,1.1,11.6,2.6v-5.9
			c-4.2-1.2-8.6-2.3-13-2.3c-12.8,0-20.8,9.5-20.8,21.8c0,10.9,6.1,21.6,18.1,21.6c12.1,0,15.8-10.3,15.8-20.7v-2.2L2538.7,239.6"/>
		<path id="path102" class="st2" d="M2584.2,255.8v-23c0-5,1.6-8.2,7.1-8.2c1.3,0,2.5,0.2,3.6,0.5v-5.2c-1.9-0.5-4-0.9-6-0.9
			c-7.7,0-12.2,4.8-12.2,12.4v24.4h-5.2v5.7h5.2v7.6l7.6,0.7v-8.2h10.9v-5.7L2584.2,255.8"/>
		<path id="path104" class="st2" d="M2662.3,219.9l-28.6,43.8v-43.8h-6.9v56.7h7.9l28.5-43.8v43.8h6.9v-56.7L2662.3,219.9"/>
		<path id="path106" class="st2" d="M2705.4,251.6c-1.3,3.3-4.2,5.2-7.7,5.2c-6.9,0-9.2-5.6-9.7-11.6h18.4
			C2706.3,247.3,2706.2,249.5,2705.4,251.6L2705.4,251.6z M2687.7,239.6c0.9-9,4.9-14.9,14.5-14.9c4,0,7.8,1.1,11.6,2.6v-5.9
			c-4.2-1.2-8.6-2.3-13-2.3c-12.8,0-20.7,9.5-20.7,21.8c0,10.9,6.1,21.6,18.1,21.6c12.1,0,15.8-10.3,15.8-20.7v-2.2L2687.7,239.6"/>
		<path id="path108" class="st2" d="M2752,251.6c-3.4,3.1-6.4,5.2-11.1,5.2c-8.8,0-10.9-9.5-10.9-16.6c0-6.5,1.6-14.5,9.7-14.5
			c4.9,0,9.2,3.2,12.3,6.8V251.6z M2752,219.9v7.8c-3-5.7-7.5-8.8-13.9-8.8c-11.7,0-16.1,10.2-16.1,20.4c0,11,5.1,23,17.8,23
			c5.2,0,8.8-1.7,12.2-5.7v23.6h7.6v-60.4h-7.6"/>
		<path id="path110" class="st2" d="M2795.1,251.6c-1.3,3.3-4.2,5.2-7.7,5.2c-6.9,0-9.2-5.6-9.7-11.6h18.4
			C2795.9,247.3,2795.9,249.5,2795.1,251.6L2795.1,251.6z M2777.3,239.6c0.9-9,4.9-14.9,14.6-14.9c4,0,7.8,1.1,11.6,2.6v-5.9
			c-4.2-1.2-8.6-2.3-13-2.3c-12.8,0-20.7,9.5-20.7,21.8c0,10.9,6.1,21.6,18.1,21.6c12.1,0,15.8-10.3,15.8-20.7v-2.2L2777.3,239.6"/>
		<path id="path112" class="st2" d="M2834.5,255.8c-5.6,0-9.4-3.9-11.9-8.5v-27.4h-7.6v41.6h7.6v-7.8c2.6,5,7.1,8.8,13,8.8
			c0.8,0,1.6,0,2.4-0.2v-7C2836.8,255.6,2835.6,255.8,2834.5,255.8"/>
		<path id="path114" class="st2" d="M2845.3,219.9v60.4h7.6v-60.4H2845.3"/>
		<path id="path116" class="st2" d="M2886.6,240.1c-0.9,0-1.8,0.1-2.6,0.1c-5.3,0-13.8-2-13.8-8.6c0-3.7,3-6.5,6.6-6.5s7,2,9.8,4.2
			V240.1z M2894.5,219c-3.8,0-5.9,2.7-6.7,6.2c-3.7-3.4-7.8-6.2-13.1-6.2c-6.6,0-11.9,4.6-11.9,11.4c0,4.3,1.8,7.6,5.2,10
			c5.4,4,12.3,4.1,18.7,4.1v5c0,5.1-2.4,7.2-7.4,7.2c-4.5,0-8.9-1.6-12.9-3.6v6.2c4.3,2,9.3,3.1,14.1,3.1c4,0,8.4-0.9,11.2-4
			c2.4-2.6,2.6-5.6,2.6-8.9v-18.9c0-3.8,0.6-7.2,5.4-6.3l0.5-4.2C2898.4,219.4,2896.4,219,2894.5,219"/>
		<path id="path118" class="st2" d="M2934.3,219.9v29c0,3.8-1.6,7-5.9,7c-5.9,0-9.9-4.5-13-9V220h-7.6v41.6h7.6v-7.8
			c3.3,4.8,8.4,8.8,14.5,8.8c7.7,0,11.9-5.3,11.9-12.7v-29.8h-7.5"/>
		<path id="path120" class="st2" d="M2981.5,251.6c-3.4,3.1-6.4,5.2-11.1,5.2c-8.8,0-10.9-9.5-10.9-16.6c0-6.5,1.6-14.5,9.7-14.5
			c4.9,0,9.2,3.2,12.3,6.8V251.6z M2981.5,219.9v7.8c-3-5.7-7.5-8.8-13.9-8.8c-11.7,0-16.1,10.2-16.1,20.4c0,11,5.1,23,17.8,23
			c5.2,0,8.8-1.7,12.2-5.7v23.6h7.6v-60.4h-7.6"/>
		<path id="path122" class="st2" d="M3013.5,219c-4.3,0-8.5,1-12.6,2.4v7c3.9-2.1,8.3-3.7,12.8-3.7c3.6,0,7.6,2,7.6,6.1
			c0,8.8-20.1,6.1-20.1,20c0,8.2,6.9,11.6,14.3,11.6c3.4,0,6.8-0.7,10.2-1.3v-6.3c-3.2,1-6.6,1.9-9.9,1.9c-3.3,0-7.3-1.4-7.3-5.3
			c0-8,20.4-5.9,20.4-20C3028.9,223.1,3021,219,3013.5,219"/>
		<path id="path124" class="st2" d="M2314.8,140.6h-4.9v-22.1h3.2c8.2,0,15,3.6,15,12.7C2328.1,139.5,2321.7,140.6,2314.8,140.6z
			 M2331.3,118.3c-4.4-4.1-12-5.8-17.9-5.8h-3.6V89.9h-8v56.7h15.4c5.4,0,11.3-0.2,15.4-4.1c2.9-2.8,3.9-6.9,3.9-10.8
			C2336.6,126.8,2335.1,121.6,2331.3,118.3"/>
		<path id="path126" class="st2" d="M2361.6,125.8c-5.6,0-9.4-3.9-11.9-8.5V89.9h-7.6v41.6h7.6v-7.8c2.6,5,7.1,8.8,13,8.8
			c0.8,0,1.6,0,2.4-0.2v-7C2364,125.6,2362.8,125.8,2361.6,125.8"/>
		<path id="path128" class="st2" d="M2387.3,126.7c-9.2,0-11.8-8.3-11.8-16.1c0-7.7,2.7-16,11.8-16c9.2,0,11.8,8.3,11.8,16
			C2399.1,118.4,2396.5,126.7,2387.3,126.7z M2387.3,89c-13,0-19.8,9.4-19.8,21.7s6.7,21.8,19.8,21.8s19.9-9.4,19.9-21.8
			S2400.3,89,2387.3,89"/>
		<path id="path130" class="st2" d="M2423.4,125.8v-23c0-5,1.6-8.2,7.1-8.2c1.3,0,2.5,0.2,3.6,0.5v-5.2c-1.9-0.5-4-0.9-6-0.9
			c-7.7,0-12.2,4.8-12.2,12.4v24.4h-5.2v5.7h5.2v7.6l7.6,0.7v-8.2h10.9v-5.7L2423.4,125.8"/>
		<path id="path132" class="st2" d="M2463.6,121.6c-1.3,3.3-4.2,5.2-7.7,5.2c-6.9,0-9.2-5.6-9.7-11.6h18.4
			C2464.4,117.3,2464.4,119.5,2463.6,121.6L2463.6,121.6z M2445.8,109.6c0.9-9,4.9-14.9,14.5-14.9c4,0,7.8,1.1,11.6,2.6v-5.9
			c-4.2-1.2-8.6-2.3-13-2.3c-12.8,0-20.8,9.5-20.8,21.8c0,10.9,6.1,21.6,18.1,21.6c12.1,0,15.8-10.3,15.8-20.7v-2.2L2445.8,109.6"/>
		<path id="path134" class="st2" d="M2492.8,89c-4.3,0-8.5,1-12.6,2.4v7c3.9-2.1,8.3-3.7,12.8-3.7c3.6,0,7.6,2,7.6,6.1
			c0,8.8-20.1,6.1-20.1,20c0,8.2,6.9,11.6,14.3,11.6c3.4,0,6.8-0.7,10.2-1.3v-6.3c-3.2,1-6.6,1.9-9.9,1.9c-3.3,0-7.3-1.4-7.3-5.3
			c0-8,20.4-5.9,20.4-20C2508.1,93.1,2500.3,89,2492.8,89"/>
		<path id="path136" class="st2" d="M2526.2,125.8v-23c0-5,1.6-8.2,7.1-8.2c1.3,0,2.5,0.2,3.7,0.5v-5.2c-2-0.5-4-0.9-6-0.9
			c-7.7,0-12.2,4.8-12.2,12.4v24.4h-5.2v5.7h5.2v7.6l7.6,0.7v-8.2h10.9v-5.7L2526.2,125.8"/>
		<path id="path138" class="st2" d="M2564.6,110.1c-0.9,0-1.8,0.1-2.6,0.1c-5.3,0-13.8-2-13.8-8.6c0-3.7,3-6.5,6.6-6.5
			c3.7,0,7,2,9.8,4.2V110.1z M2572.4,89c-3.8,0-5.9,2.7-6.7,6.2c-3.7-3.4-7.8-6.2-13.1-6.2c-6.6,0-11.9,4.6-11.9,11.4
			c0,4.3,1.8,7.6,5.2,10c5.4,4,12.3,4.1,18.7,4.1v5c0,5.1-2.4,7.2-7.4,7.2c-4.5,0-8.9-1.6-12.9-3.6v6.2c4.3,2,9.3,3.1,14.1,3.1
			c4,0,8.4-0.9,11.2-4c2.4-2.6,2.6-5.6,2.6-8.9v-18.9c0-3.8,0.6-7.2,5.4-6.3l0.5-4.2C2576.3,89.4,2574.4,89,2572.4,89"/>
		<path id="path140" class="st2" d="M2610.6,89.9v29c0,3.8-1.6,7-5.9,7c-5.9,0-9.9-4.5-13-9v-27h-7.6v41.6h7.6v-7.8
			c3.3,4.8,8.4,8.8,14.5,8.8c7.7,0,11.9-5.3,11.9-12.7V89.9H2610.6"/>
		<path id="path142" class="st2" d="M2637.2,125.8v-23c0-5,1.6-8.2,7.1-8.2c1.3,0,2.5,0.2,3.6,0.5v-5.2c-1.9-0.5-4-0.9-6-0.9
			c-7.7,0-12.2,4.8-12.2,12.4v24.4h-5.2v5.7h5.2v7.6l7.6,0.7v-8.2h10.9v-5.7L2637.2,125.8"/>
		<path id="path144" class="st2" d="M2655.3,89.9v41.6h7.6V89.9H2655.3z M2655.3,139.1v7.6h7.6v-7.6H2655.3"/>
		<path id="path146" class="st2" d="M2685.6,89c-4.3,0-8.5,1-12.6,2.4v7c3.9-2.1,8.3-3.7,12.8-3.7c3.6,0,7.6,2,7.6,6.1
			c0,8.8-20.1,6.1-20.1,20c0,8.2,6.9,11.6,14.3,11.6c3.4,0,6.8-0.7,10.2-1.3v-6.3c-3.2,1-6.6,1.9-9.9,1.9c-3.3,0-7.3-1.4-7.3-5.3
			c0-8,20.4-5.9,20.4-20C2700.9,93.1,2693.1,89,2685.6,89"/>
		<path id="path148" class="st2" d="M2762.1,89.9V119c0,3.8-1.4,7.1-5.7,7.1c-5.4,0-9.3-4.4-12.2-8.3V89.9h-7.6V119
			c0,3.9-1.4,7.1-5.8,7.1c-5.4,0-9.1-4.4-12.2-8.3V89.9h-7.6v41.6h7.6v-7.8c3.1,4.9,8.1,8.8,14.1,8.8c2.7,0,5.1-0.8,7.2-2.4
			c2.5-1.8,3.2-3.6,4.2-6.4c2.9,4.9,8.1,8.8,13.9,8.8c2.8,0,5.5-0.8,7.7-2.6c3.2-2.6,3.8-5.8,3.8-9.7V89.9H2762.1"/>
		<path id="path150" class="st2" d="M2803,121.6c-1.3,3.3-4.2,5.2-7.7,5.2c-6.9,0-9.2-5.6-9.7-11.6h18.4
			C2803.9,117.3,2803.8,119.5,2803,121.6L2803,121.6z M2785.2,109.6c0.9-9,4.9-14.9,14.6-14.9c4,0,7.8,1.1,11.6,2.6v-5.9
			c-4.2-1.2-8.6-2.3-13-2.3c-12.8,0-20.7,9.5-20.7,21.8c0,10.9,6.1,21.6,18.1,21.6c12.1,0,15.8-10.3,15.8-20.7v-2.2L2785.2,109.6"/>
		<path id="path152" class="st2" d="M2846.4,89.4c-4.8,7.5-7.4,16.3-7.4,25.2c0,8.6,2.8,17.9,7.4,25.2c3.2,5,5.6,7.4,10.5,10.7v-5.2
			c-2.3-2.6-4.4-5.3-6-8.3c-3.4-6.6-4.3-15-4.3-22.4c0-12,2-21.7,10.4-30.7v-5.2C2852,82,2849.6,84.3,2846.4,89.4"/>
		<path id="path154" class="st2" d="M2876,89.9v51h-9v4.8l16.6,1.4V89.9H2876"/>
		<path id="path156" class="st2" d="M2918.2,142.4c-4.4,0-9.3-2.3-9.3-7.4c0-5.8,6.6-9.4,11.1-11.8c4,2.6,7.9,6.5,7.9,11.6
			C2927.8,140.1,2922.8,142.4,2918.2,142.4L2918.2,142.4z M2919.8,114.5l-5.4,3.2c-4.7-3.5-7.7-6.5-7.7-12.7
			c0-6.8,4.8-10.9,11.4-10.9c5.5,0,11.1,3,11.1,9.2C2929.1,109.3,2924.2,111.9,2919.8,114.5L2919.8,114.5z M2917.6,88.5
			c-9.4,0-18.5,4.9-18.5,15.4c0,7.5,5.1,13.3,11.2,16.9c-4.7,3.1-8.3,6.8-8.3,12.8c0,9.6,8.2,14.4,17,14.4c7.5,0,15.7-3.6,15.7-12.2
			c0-6.9-5.2-11.5-10.5-15c6.9-3.3,12.8-7.9,12.8-16.2C2937,93.8,2927.3,88.5,2917.6,88.5"/>
		<path id="path158" class="st2" d="M2962.4,142.4c-10.9,0-11.8-16.3-11.8-24.1s0.9-24.1,11.8-24.1c10.9,0,11.8,16.2,11.8,24.1
			C2974.2,126.1,2973.2,142.4,2962.4,142.4z M2962.4,88.5c-15.2,0-19.9,17.4-19.9,29.7s4.7,29.7,19.9,29.7
			c15.1,0,19.8-17.5,19.8-29.7S2977.5,88.5,2962.4,88.5"/>
		<path id="path160" class="st2" d="M3007.7,142.4c-10.9,0-11.8-16.3-11.8-24.1s0.9-24.1,11.8-24.1c10.9,0,11.8,16.2,11.8,24.1
			C3019.5,126.1,3018.5,142.4,3007.7,142.4z M3007.7,88.5c-15.2,0-19.9,17.4-19.9,29.7s4.7,29.7,19.9,29.7
			c15.1,0,19.8-17.5,19.8-29.7S3022.8,88.5,3007.7,88.5"/>
		<path id="path162" class="st2" d="M3032.4,110.7v5.7h17v-5.7H3032.4"/>
		<path id="path164" class="st2" d="M3083.4,89.9v29c0,3.8-1.6,7-5.9,7c-5.9,0-9.9-4.5-13-9v-27h-7.6v60.4h7.6v-26.7
			c3.3,4.8,8.4,8.8,14.5,8.8c7.7,0,11.9-5.3,11.9-12.7V89.9H3083.4"/>
		<path id="path166" class="st2" d="M3123.4,121.6c-1.3,3.3-4.2,5.2-7.7,5.2c-6.9,0-9.2-5.6-9.7-11.6h18.4
			C3124.3,117.3,3124.2,119.5,3123.4,121.6L3123.4,121.6z M3105.7,109.6c0.9-9,4.9-14.9,14.6-14.9c4,0,7.8,1.1,11.6,2.6v-5.9
			c-4.2-1.2-8.6-2.3-13-2.3c-12.8,0-20.7,9.5-20.7,21.8c0,10.9,6.1,21.6,18.1,21.6c12.1,0,15.8-10.3,15.8-20.7v-2.2L3105.7,109.6"/>
		<path id="path168" class="st2" d="M3167.5,121.6c-3.4,3.1-6.4,5.2-11.1,5.2c-8.8,0-10.9-9.5-10.9-16.6c0-6.5,1.6-14.5,9.7-14.5
			c4.9,0,9.2,3.2,12.3,6.8V121.6z M3167.5,89.9v7.8c-3-5.7-7.5-8.8-13.9-8.8c-11.7,0-16.1,10.2-16.1,20.4c0,11,5.1,23,17.8,23
			c5.2,0,8.8-1.7,12.2-5.7v23.6h7.6V89.9H3167.5"/>
		<path id="path170" class="st2" d="M3208,121.6c-1.3,3.3-4.2,5.2-7.7,5.2c-6.9,0-9.2-5.6-9.7-11.6h18.4
			C3208.9,117.3,3208.8,119.5,3208,121.6L3208,121.6z M3190.2,109.6c0.9-9,4.9-14.9,14.6-14.9c4,0,7.8,1.1,11.6,2.6v-5.9
			c-4.2-1.2-8.6-2.3-13-2.3c-12.8,0-20.7,9.5-20.7,21.8c0,10.9,6.1,21.6,18.1,21.6c12.1,0,15.8-10.3,15.8-20.7v-2.2L3190.2,109.6"/>
		<path id="path172" class="st2" d="M3251.8,89.9v29c0,3.8-1.6,7-5.9,7c-5.9,0-9.9-4.5-13-9v-27h-7.6v41.6h7.6v-7.8
			c3.3,4.8,8.4,8.8,14.5,8.8c7.7,0,11.9-5.3,11.9-12.7V89.9H3251.8"/>
		<path id="path174" class="st2" d="M3275.5,89.4c-3.2-5-5.6-7.4-10.5-10.7v5.2c8.3,8.9,10.5,18.9,10.5,30.7c0,7.1-1.2,16-4.4,22.4
			c-1.5,3.1-3.7,5.8-6,8.3v5.2c4.9-3.3,7.3-5.7,10.5-10.7c4.8-7.5,7.4-16.3,7.4-25.2C3282.9,105.7,3280.3,96.8,3275.5,89.4"/>
	</g>
</g>
</svg>
